<?xml version="1.0" standalone="no"?>
<!DOCTYPE svg PUBLIC "-//W3C//DTD SVG 20010904//EN"
 "http://www.w3.org/TR/2001/REC-SVG-20010904/DTD/svg10.dtd">
<svg version="1.0" xmlns="http://www.w3.org/2000/svg"
 width="34.000000pt" height="70.000000pt" viewBox="0 0 34.000000 70.000000"
 preserveAspectRatio="xMidYMid meet">

<g transform="translate(0.000000,70.000000) scale(0.100000,-0.100000)"
fill="#000000" stroke="none">
<path d="M133 665 c-9 -10 -13 -63 -13 -190 0 -168 -1 -175 -20 -175 -19 0
-20 7 -20 96 0 71 -4 99 -15 110 -13 14 -17 14 -30 0 -11 -11 -15 -39 -15
-116 0 -94 2 -103 25 -125 13 -14 36 -25 50 -25 l25 0 0 -110 0 -110 50 0 50
0 0 150 0 150 25 0 c14 0 37 11 50 25 23 22 25 31 25 125 0 77 -4 105 -15 116
-13 14 -17 14 -30 0 -11 -11 -15 -39 -15 -110 0 -89 -1 -96 -20 -96 -19 0 -20
7 -20 136 0 104 -3 139 -14 150 -18 18 -57 18 -73 -1z"/>
</g>
</svg>
